<svg xmlns="http://www.w3.org/2000/svg" xmlns:xlink="http://www.w3.org/1999/xlink" xml:space="preserve" version="1.1" style="shape-rendering:geometricPrecision;text-rendering:geometricPrecision;image-rendering:optimizeQuality;" viewBox="0 0 0.338 0.338" x="0px" y="0px" fill-rule="evenodd" clip-rule="evenodd"><defs><style type="text/css">
   
    .fil0 {fill:black;fill-rule:nonzero}
   
  </style></defs><g><g><path class="fil0" d="M0.321 0.311l-0.05 -0.05 -0.005 0.005 -0.005 0.005 0.05 0.05 0.01 -0.01zm-0.319 -0.005l0.055 -0.055 -0.035 -0.035c-0.003,-0.003 -0.003,-0.008 0,-0.01l0.02 -0.02c0.003,-0.003 0.007,-0.003 0.01,0l0.023 0.023 0.032 -0.037 -0.099 -0.089c-0.002,-0.001 -0.003,-0.003 -0.003,-0.005l0 0 -0.005 -0.07c0,-0.004 0.003,-0.008 0.007,-0.008 0,0 0,0 0.001,0l0.07 0.005c0.002,0 0.004,0.001 0.005,0.003l0.086 0.096 0.085 -0.096c0.002,-0.002 0.003,-0.003 0.005,-0.003l0.071 -0.005c0,0 0.001,0 0.001,0 0.004,0 0.007,0.004 0.007,0.008l-0.006 0.07 0 0c0,0.002 -0.001,0.004 -0.002,0.005l-0.1 0.089 0.033 0.037 0.023 -0.023c0.002,-0.003 0.007,-0.003 0.01,0l0.02 0.02c0.002,0.002 0.002,0.007 0,0.01l-0.035 0.035 0.055 0.055c0.002,0.002 0.002,0.007 0,0.01l-0.02 0.02c-0.003,0.002 -0.008,0.002 -0.01,0l-0.055 -0.055 -0.035 0.035c-0.003,0.002 -0.008,0.002 -0.01,0l-0.02 -0.02c-0.003,-0.003 -0.003,-0.008 0,-0.01l0.023 -0.023 -0.04 -0.036 -0.04 0.036 0.023 0.023c0.003,0.002 0.003,0.007 0,0.01l-0.02 0.02c-0.003,0.002 -0.007,0.002 -0.01,0l-0.035 -0.035 -0.055 0.055c-0.003,0.002 -0.007,0.002 -0.01,0l-0.02 -0.02c-0.003,-0.003 -0.003,-0.008 0,-0.01zm0.115 -0.144l0.042 -0.048 -0.085 -0.095 -0.059 -0.004 0.004 0.059 0.098 0.088zm0.103 0.02l-0.041 0.036 0.04 0.035 0.034 -0.034 -0.033 -0.037zm0.071 0.019l-0.024 0.023 0.024 -0.023zm-0.067 0.066l-0.023 0.024 0.01 0.01 0.035 -0.035 0 0 0.02 -0.02 0.035 -0.035 -0.01 -0.01 -0.067 0.066zm-0.139 -0.048l0.034 0.034 0.199 -0.179 0.005 -0.059 -0.06 0.004 -0.178 0.2zm-0.013 0.027l0.02 0.02 0 0 0.035 0.035 0.01 -0.01 -0.023 -0.024 -0.044 -0.043 -0.023 -0.023 -0.01 0.01 0.035 0.035zm-0.005 0.015l-0.05 0.05 0.01 0.01 0.05 -0.05 -0.005 -0.005 -0.005 -0.005z"></path></g></g></svg>